:SAMPLES-PER-SECOND 30
:FULLY-SPECIFIED
:DEGREES
262
root  9.01894 36.8405 5.25642 -165.825 -51.6903 177.237
RightUpLeg  -46.2606 10.3278 -6.16691
RightLeg  36.8195 13.7585 10.6035
RightFoot  -0.926951 -0.593484 6.42439
RightToes  5.82063e-011 0 -3.6325e-017
Spine  43.849 -2.06733 4.83686
Spine1  -11.5636 1.77845 -8.49596
HEad  -43.616 -17.5266 13.2018
LeftShoulder1  -0.15848 1.02973 16.9727
LeftArm  94.2856 -79.8537 -172.076
LeftForeArm  143.532 -77.7827 -129.836
LeftHand  -0.983554 1.5878 29.6744
RightShoulder  -0.308544 -1.17731 -25.1329
RightArm  -87.5977 83.0476 -18.1839
RightForeArm  11.2417 -6.5427 3.91128
RightHand  0.318573 -7.76379 -16.4591
LeftUpLeg  -41.4707 -4.93336 -6.49472
LeftLeg  41.2523 16.7376 15.537
LeftFoot  -8.68575 0.137574 -3.68613
LeftToes  -1.1369e-010 2.7689e-011 -1.90827e-011
263
root  8.81809 37.0742 5.55313 -164.256 -49.0803 177.533
RightUpLeg  -47.2889 11.1621 -6.92135
RightLeg  34.2287 15.1668 10.6427
RightFoot  0.672647 -0.699461 6.68922
RightToes  5.82063e-011 0 -3.6325e-017
Spine  44.0241 -2.3816 4.08464
Spine1  -13.9763 1.11008 -8.52995
HEad  -40.6642 -17.214 13.4064
LeftShoulder1  -0.115336 1.80294 17.4858
LeftArm  101.066 -79.7514 -179.655
LeftForeArm  143.437 -77.9694 -128.989
LeftHand  -1.03805 1.34624 29.4513
RightShoulder  -0.0712888 -2.94817 -25.7729
RightArm  -117.908 76.8436 -55.9402
RightForeArm  5.9194 -6.44272 3.47523
RightHand  0.254808 -7.36082 -16.0733
LeftUpLeg  -42.5886 -4.66275 -6.46599
LeftLeg  39.705 18.392 16.0645
LeftFoot  -7.25572 0.186866 -4.01379
LeftToes  -1.1369e-010 2.7689e-011 -1.90827e-011
264
root  8.6648 36.8946 5.8108 -162.963 -47.0738 176.961
RightUpLeg  -49.3057 11.0443 -7.41726
RightLeg  35.4716 14.1361 10.3619
RightFoot  0.79827 -0.66827 6.32816
RightToes  5.82063e-011 0 -3.6325e-017
Spine  44.6605 -2.62173 3.28351
Spine1  -15.3679 0.550331 -8.33063
HEad  -40.1444 -17.404 13.6706
LeftShoulder1  -0.0643628 2.68718 18.562
LeftArm  110.056 -79.0068 169.749
LeftForeArm  143.331 -77.9932 -128.852
LeftHand  -1.05263 1.29624 29.5002
RightShoulder  0.17239 -4.64375 -25.9955
RightArm  -120.324 68.3119 -67.4025
RightForeArm  -1.36215 -6.29411 3.02438
RightHand  0.208554 -7.03411 -15.9695
LeftUpLeg  -44.5626 -3.87952 -7.31285
LeftLeg  41.4241 17.9152 16.5853
LeftFoot  -6.98395 0.21945 -4.6726
LeftToes  -1.1369e-010 2.7689e-011 -1.90827e-011
265
root  8.55436 36.2901 6.04129 -162.35 -45.4242 175.573
RightUpLeg  -51.8379 9.99627 -7.39352
RightLeg  40.3773 10.9559 9.54172
RightFoot  -0.716221 -0.438723 4.61602
RightToes  5.82063e-011 0 -3.6325e-017
Spine  45.8467 -2.57449 2.08818
Spine1  -16.189 0.0205403 -7.36613
HEad  -41.0441 -17.92 13.6239
LeftShoulder1  -0.0694456 2.65559 18.9779
LeftArm  116.319 -78.6689 162.369
LeftForeArm  143.264 -77.9223 -129.154
LeftHand  -1.0252 1.43828 29.7543
RightShoulder  0.3521 -5.81658 -26.4922
RightArm  -117.349 61.446 -71.1537
RightForeArm  -8.14824 -6.02344 2.05023
RightHand  0.187164 -6.88138 -15.9209
LeftUpLeg  -46.8078 -2.89896 -8.89236
LeftLeg  46.0115 15.6126 17.0145
LeftFoot  -8.20212 0.202094 -5.65323
LeftToes  -1.1369e-010 2.7689e-011 -1.90827e-011
266
root  8.41786 35.2607 6.22528 -163.215 -44.0995 174.089
RightUpLeg  -54.1458 9.35401 -7.41266
RightLeg  47.9225 7.51562 8.51472
RightFoot  -3.98516 -0.208173 2.82476
RightToes  5.82063e-011 0 -3.6325e-017
Spine  47.4646 -2.55876 1.04295
Spine1  -16.4621 -0.582711 -6.2019
HEad  -41.878 -18.5825 13.1654
LeftShoulder1  -0.130202 1.82649 18.567
LeftArm  118.957 -79.1624 159.43
LeftForeArm  142.729 -78.0308 -128.52
LeftHand  -1.01736 1.49067 29.9177
RightShoulder  0.54961 -6.98564 -27.2362
RightArm  -117.858 58.0052 -73.711
RightForeArm  -11.7414 -5.74776 0.857753
RightHand  0.178809 -6.82786 -15.8356
LeftUpLeg  -48.3325 -1.65554 -10.7798
LeftLeg  52.428 12.46 17.2171
LeftFoot  -11.5916 0.056863 -6.27711
LeftToes  -1.1369e-010 2.7689e-011 -1.90827e-011
267
root  8.18004 33.9201 6.33323 -165.701 -43.198 173.27
RightUpLeg  -55.7999 9.63913 -7.70748
RightLeg  56.6425 5.55282 8.65869
RightFoot  -8.18318 -0.121001 2.53597
RightToes  5.82063e-011 0 -3.6325e-017
Spine  49.1575 -2.97368 0.889319
Spine1  -16.1274 -1.22419 -5.58743
HEad  -42.0042 -19.1643 12.2316
LeftShoulder1  -0.211179 0.47949 17.6633
LeftArm  114.623 -80.4728 163.924
LeftForeArm  141.647 -78.2605 -127.15
LeftHand  -1.02791 1.45661 29.9645
RightShoulder  0.755793 -8.1134 -27.9854
RightArm  -123.598 58.5238 -76.4656
RightForeArm  -10.7564 -5.62193 0.0271166
RightHand  0.155969 -6.65548 -15.8782
LeftUpLeg  -48.7898 -0.0999915 -12.5248
LeftLeg  59.6059 9.65803 17.7962
LeftFoot  -16.8909 -0.179762 -5.88171
LeftToes  -1.1369e-010 2.7689e-011 -1.90827e-011
268
root  7.85282 32.5506 6.38656 -168.839 -42.3664 173.297
RightUpLeg  -56.9597 10.1229 -7.82422
RightLeg  64.6608 4.89962 10.6482
RightFoot  -11.9068 -0.064617 3.29612
RightToes  5.82063e-011 0 -3.6325e-017
Spine  50.2655 -3.74392 1.68023
Spine1  -14.5033 -1.68943 -5.74587
HEad  -42.6572 -19.3552 11.4674
LeftShoulder1  -0.262219 -0.731806 16.7287
LeftArm  100.607 -81.5004 178.288
LeftForeArm  140.832 -78.3452 -126.51
LeftHand  -1.01684 1.49798 29.9553
RightShoulder  0.803164 -8.37172 -28.0877
RightArm  -134.232 62.6083 -79.3092
RightForeArm  -4.6556 -5.63034 -0.55428
RightHand  0.108281 -6.26285 -16.481
LeftUpLeg  -48.8376 1.52039 -13.812
LeftLeg  66.416 7.69011 19.3894
LeftFoot  -22.3321 -0.345913 -4.9767
LeftToes  -1.1369e-010 2.7689e-011 -1.90827e-011
